<?xml version="1.0" encoding="UTF-8" standalone="no"?>
<!-- Created with Inkscape (http://www.inkscape.org/) -->

<svg
   xmlns:dc="http://purl.org/dc/elements/1.1/"
   xmlns:cc="http://creativecommons.org/ns#"
   xmlns:rdf="http://www.w3.org/1999/02/22-rdf-syntax-ns#"
   xmlns:svg="http://www.w3.org/2000/svg"
   xmlns="http://www.w3.org/2000/svg"
   xmlns:sodipodi="http://sodipodi.sourceforge.net/DTD/sodipodi-0.dtd"
   xmlns:inkscape="http://www.inkscape.org/namespaces/inkscape"
   width="210mm"
   height="297mm"
   viewBox="0 0 210 297"
   version="1.1"
   id="svg8"
   inkscape:version="0.92.3 (2405546, 2018-03-11)"
   sodipodi:docname="ShopKeeper.svg">
  <defs
     id="defs2" />
  <sodipodi:namedview
     id="base"
     pagecolor="#ffffff"
     bordercolor="#666666"
     borderopacity="1.0"
     inkscape:pageopacity="0.0"
     inkscape:pageshadow="2"
     inkscape:zoom="1"
     inkscape:cx="349.32059"
     inkscape:cy="696.29862"
     inkscape:document-units="mm"
     inkscape:current-layer="layer1"
     showgrid="false"
     inkscape:window-width="1920"
     inkscape:window-height="1137"
     inkscape:window-x="-8"
     inkscape:window-y="-8"
     inkscape:window-maximized="1" />
  <metadata
     id="metadata5">
    <rdf:RDF>
      <cc:Work
         rdf:about="">
        <dc:format>image/svg+xml</dc:format>
        <dc:type
           rdf:resource="http://purl.org/dc/dcmitype/StillImage" />
        <dc:title />
      </cc:Work>
    </rdf:RDF>
  </metadata>
  <g
     inkscape:label="Layer 1"
     inkscape:groupmode="layer"
     id="layer1">
    <path
       style="fill:#000000;stroke:#ffffff;stroke-width:1.0141542;stroke-linecap:butt;stroke-linejoin:miter;stroke-miterlimit:4;stroke-dasharray:none;stroke-opacity:1"
       d="m 28.026933,114.27059 c 0,0 -0.874108,5.62762 -0.755951,8.45535 0.05359,1.28245 0.378174,2.0356 0.188988,3.3044 -0.350243,2.34895 -1.970517,4.56251 -2.740328,6.80315 -0.374575,1.09025 -0.771395,2.25081 -0.661458,3.40158 0.626911,6.56224 1.965326,14.72551 7.370534,18.27133 4.144846,2.71901 11.009358,0.23801 13.13626,-0.57585 2.611667,-0.99938 6.76647,-0.36958 9.353324,-0.39603 2.488641,-0.0255 4.983875,-0.48037 7.607335,0.05 3.3877,0.68481 6.86305,2.23401 9.49609,0.3388 5.69624,-4.10002 6.29359,-12.87122 6.4256,-20.02071 0.14665,-7.94219 -6.33111,-23.13074 -6.33111,-23.13074 z"
       id="path853"
       inkscape:connector-curvature="0"
       sodipodi:nodetypes="csssssssssscc"
       inkscape:export-xdpi="96"
       inkscape:export-ydpi="96" />
    <path
       style="fill:#999999;stroke:#ffffff;stroke-width:1;stroke-linecap:butt;stroke-linejoin:miter;stroke-miterlimit:4;stroke-dasharray:none;stroke-opacity:1"
       d="m 27.35379,66.22485 c 0,0 -17.5491583,6.575627 -21.8378203,36.35538 -1.3301,9.23599 -1.440174,26.50815 7.8844503,26.86058 6.804106,0.25716 5.510919,-12.51782 7.216278,-19.10977 3.77724,-14.600657 6.737092,-44.10619 6.737092,-44.10619 z"
       id="path828"
       inkscape:connector-curvature="0"
       sodipodi:nodetypes="csssc"
       inkscape:export-xdpi="96"
       inkscape:export-ydpi="96" />
    <path
       style="fill:#999999;stroke:#fffff8;stroke-width:1;stroke-linecap:butt;stroke-linejoin:miter;stroke-miterlimit:4;stroke-dasharray:none;stroke-opacity:1"
       d="m 67.180887,64.422748 c 0,0 10.34064,33.877899 12.10147,50.719142 0.48813,4.66871 5.3623,11.81042 9.75534,10.15624 9.264,-3.48833 4.46819,-20.27639 1.33635,-29.666917 C 78.868797,61.133838 67.180887,64.422748 67.180887,64.422748 Z"
       id="path830"
       inkscape:connector-curvature="0"
       sodipodi:nodetypes="csssc"
       inkscape:export-xdpi="96"
       inkscape:export-ydpi="96" />
    <path
       style="fill:#999999;stroke:#ffffff;stroke-width:1;stroke-linecap:butt;stroke-linejoin:miter;stroke-miterlimit:4;stroke-dasharray:none;stroke-opacity:1"
       d="m 71.116217,110.77187 c 4.57135,0.85411 7.7746,6.37544 8.65566,10.94167 0.7058,3.6579 0.17576,9.08751 -3.175,10.71563 -3.1155,1.5138 -7.62351,-1.03259 -9.65729,-3.83646 -2.90554,-4.00572 -3.24682,-10.44609 -0.92605,-14.81667 0.92567,-1.74326 3.16247,-3.36668 5.10268,-3.00417 z"
       id="path865"
       inkscape:connector-curvature="0"
       sodipodi:nodetypes="ssssss"
       inkscape:export-xdpi="96"
       inkscape:export-ydpi="96" />
    <path
       style="fill:#999999;stroke:#ffffff;stroke-width:1;stroke-linecap:butt;stroke-linejoin:miter;stroke-miterlimit:4;stroke-dasharray:none;stroke-opacity:1"
       d="m 34.924999,115.89271 c -2.927264,1.17866 -7.300647,2.06865 -7.9375,5.15937 -1.026795,4.98315 3.431023,11.97313 8.466667,12.7 4.152003,0.59932 8.562871,-4.02003 9.657292,-8.06979 1.015316,-3.75704 -0.586305,-9.0553 -3.96875,-10.98021 -1.834035,-1.04373 -4.260206,0.40244 -6.217709,1.19063 z"
       id="path863"
       inkscape:connector-curvature="0"
       sodipodi:nodetypes="ssssss"
       inkscape:export-xdpi="96"
       inkscape:export-ydpi="96" />
    <path
       style="fill:#000000;stroke:#fffffe;stroke-width:1;stroke-linecap:butt;stroke-linejoin:miter;stroke-miterlimit:4;stroke-dasharray:none;stroke-opacity:1"
       d="m 48.468082,57.584447 c 17.880075,-0.494661 32.408035,18.688383 34.128285,34.887017 1.25812,11.847026 -7.66142,20.751546 -17.07839,22.638006 -4.31205,0.86381 -8.930956,-2.5252 -13.47418,-2.23265 -4.883021,0.31443 -10.485892,4.73752 -15.377496,4.61514 C 26.13294,117.22842 13.468989,106.71493 12.973807,95.914695 12.195097,78.930552 29.19273,58.117709 48.468082,57.584447 Z"
       id="path832"
       inkscape:connector-curvature="0"
       sodipodi:nodetypes="sssssss"
       inkscape:export-xdpi="96"
       inkscape:export-ydpi="96" />
    <ellipse
       style="fill:#000000;fill-opacity:0.98895024;stroke:#ffffff;stroke-width:1;stroke-linecap:round;stroke-linejoin:round;stroke-miterlimit:4;stroke-dasharray:none;stroke-opacity:1"
       id="path834"
       cx="36.862122"
       cy="95.387505"
       rx="3.1655507"
       ry="3.3072915"
       inkscape:export-xdpi="96"
       inkscape:export-ydpi="96" />
    <path
       style="fill:#999999;fill-opacity:0.98895024;stroke:none;stroke-width:0.26458332px;stroke-linecap:butt;stroke-linejoin:miter;stroke-opacity:1"
       d="m 64.123657,81.780355 c -5.20059,0.858711 -8.551649,9.460931 -6.61458,14.363097 1.41224,3.573985 6.954,5.295868 10.67783,4.346728 3.23204,-0.823793 6.45413,-4.415415 6.3311,-7.748516 -0.18574,-5.031924 -5.42627,-11.781629 -10.39435,-10.961309 z"
       id="path851"
       inkscape:connector-curvature="0"
       sodipodi:nodetypes="sssss"
       inkscape:export-xdpi="96"
       inkscape:export-ydpi="96" />
    <ellipse
       style="fill:#000000;fill-opacity:0.98895024;stroke:#ffffff;stroke-width:1;stroke-linecap:round;stroke-linejoin:round;stroke-miterlimit:4;stroke-dasharray:none;stroke-opacity:1"
       id="path834-4"
       cx="66.297028"
       cy="93.592117"
       rx="3.1655507"
       ry="3.3072917"
       inkscape:export-xdpi="96"
       inkscape:export-ydpi="96" />
    <path
       style="fill:none;stroke:#ffffff;stroke-width:1;stroke-linecap:butt;stroke-linejoin:miter;stroke-miterlimit:4;stroke-dasharray:none;stroke-opacity:1"
       d="m 50.138541,102.26667 5.291666,3.57187"
       id="path855"
       inkscape:connector-curvature="0"
       inkscape:export-xdpi="96"
       inkscape:export-ydpi="96" />
    <path
       style="fill:none;stroke:#ffffff;stroke-width:1;stroke-linecap:butt;stroke-linejoin:miter;stroke-miterlimit:4;stroke-dasharray:none;stroke-opacity:1"
       d="m 50.270832,106.36771 4.630209,-4.49792"
       id="path857"
       inkscape:connector-curvature="0"
       inkscape:export-xdpi="96"
       inkscape:export-ydpi="96" />
    <path
       style="fill:#999999;stroke:#ffffff;stroke-width:1;stroke-linecap:butt;stroke-linejoin:miter;stroke-miterlimit:4;stroke-dasharray:none;stroke-opacity:1"
       d="m 21.166666,139.44063 c 2.320121,-4.92978 11.020454,-5.50211 16.007292,-3.3073 5.357541,2.35796 11.318235,9.7082 8.995833,15.08125 -2.275333,5.26415 -11.596067,6.1118 -16.801042,3.70417 -5.299517,-2.45136 -10.688512,-10.19497 -8.202083,-15.47812 z"
       id="path859"
       inkscape:connector-curvature="0"
       sodipodi:nodetypes="sssss"
       inkscape:export-xdpi="96"
       inkscape:export-ydpi="96" />
    <path
       style="fill:#999999;stroke:#ffffff;stroke-width:1;stroke-linecap:butt;stroke-linejoin:miter;stroke-miterlimit:4;stroke-dasharray:none;stroke-opacity:1"
       d="m 60.986457,153.06667 c 0,0 6.50041,-14.91899 13.36146,-17.59479 1.62785,-0.63486 3.28317,0.37286 5.02708,0.26458 2.0742,-0.12879 4.09605,-1.79172 6.08542,-1.19063 3.48092,1.05177 6.47329,4.3219 6.08541,7.9375 -0.42166,3.93048 -4.01477,5.21321 -6.87916,7.9375 -1.49395,1.42089 -2.14708,3.9723 -4.10104,4.63021 -8.80455,2.96456 -19.57917,-1.98437 -19.57917,-1.98437 z"
       id="path861"
       inkscape:connector-curvature="0"
       sodipodi:nodetypes="cssssssc"
       inkscape:export-xdpi="96"
       inkscape:export-ydpi="96" />
    <path
       inkscape:export-ydpi="96"
       inkscape:export-xdpi="96"
       sodipodi:nodetypes="csssssssssscc"
       inkscape:connector-curvature="0"
       id="path888"
       d="m 134.9186,114.27059 c 0,0 -0.87411,5.62762 -0.75595,8.45535 0.0536,1.28245 0.37817,2.0356 0.18899,3.3044 -0.35025,2.34895 -1.97052,4.56251 -2.74033,6.80315 -0.37458,1.09025 -0.7714,2.25081 -0.66146,3.40158 0.62691,6.56224 1.96533,14.72551 7.37053,18.27133 4.14485,2.71901 11.00936,0.23801 13.13626,-0.57585 2.61167,-0.99938 6.76647,-0.36958 9.35333,-0.39603 2.48864,-0.0255 4.98387,-0.48037 7.60733,0.05 3.3877,0.68481 6.86305,2.23401 9.49609,0.3388 5.69624,-4.10002 6.29359,-12.87122 6.4256,-20.02071 0.14665,-7.94219 -6.33111,-23.13074 -6.33111,-23.13074 z"
       style="fill:#000000;stroke:#ffffff;stroke-width:1.0141542;stroke-linecap:butt;stroke-linejoin:miter;stroke-miterlimit:4;stroke-dasharray:none;stroke-opacity:1" />
    <path
       inkscape:export-ydpi="96"
       inkscape:export-xdpi="96"
       sodipodi:nodetypes="csssc"
       inkscape:connector-curvature="0"
       id="path890"
       d="m 134.24546,66.22485 c 0,0 -17.54916,6.575627 -21.83782,36.35538 -1.3301,9.23599 -1.44018,26.50815 7.88445,26.86058 6.8041,0.25716 5.51092,-12.51782 7.21627,-19.10977 3.77724,-14.600657 6.7371,-44.10619 6.7371,-44.10619 z"
       style="fill:#999999;stroke:#ffffff;stroke-width:1;stroke-linecap:butt;stroke-linejoin:miter;stroke-miterlimit:4;stroke-dasharray:none;stroke-opacity:1" />
    <path
       inkscape:export-ydpi="96"
       inkscape:export-xdpi="96"
       sodipodi:nodetypes="csssc"
       inkscape:connector-curvature="0"
       id="path892"
       d="m 174.07255,64.422748 c 0,0 10.34064,33.877899 12.10147,50.719142 0.48813,4.66871 5.3623,11.81042 9.75534,10.15624 9.264,-3.48833 4.46819,-20.27639 1.33635,-29.666917 C 185.76046,61.133838 174.07255,64.422748 174.07255,64.422748 Z"
       style="fill:#999999;stroke:#fffff8;stroke-width:1;stroke-linecap:butt;stroke-linejoin:miter;stroke-miterlimit:4;stroke-dasharray:none;stroke-opacity:1" />
    <path
       inkscape:export-ydpi="96"
       inkscape:export-xdpi="96"
       sodipodi:nodetypes="sssssss"
       inkscape:connector-curvature="0"
       id="path898"
       d="m 155.35975,57.584447 c 17.88007,-0.494661 32.40803,18.688383 34.12828,34.887017 1.25812,11.847026 -7.66142,20.751546 -17.07839,22.638006 -4.31205,0.86381 -8.93095,-2.5252 -13.47418,-2.23265 -4.88302,0.31443 -10.48589,4.73752 -15.37749,4.61514 -10.53336,-0.26354 -23.19731,-10.77703 -23.6925,-21.577265 -0.77871,-16.984143 16.21893,-37.796986 35.49428,-38.330248 z"
       style="fill:#000000;stroke:#fffffe;stroke-width:1;stroke-linecap:butt;stroke-linejoin:miter;stroke-miterlimit:4;stroke-dasharray:none;stroke-opacity:1" />
    <ellipse
       inkscape:export-ydpi="96"
       inkscape:export-xdpi="96"
       ry="7.884984"
       rx="3.0747144"
       cy="90.548943"
       cx="143.92381"
       id="ellipse900"
       style="fill:#000000;fill-opacity:0.98895024;stroke:#ffffff;stroke-width:1.5217452;stroke-linecap:round;stroke-linejoin:round;stroke-miterlimit:4;stroke-dasharray:none;stroke-opacity:1" />
    <path
       inkscape:export-ydpi="96"
       inkscape:export-xdpi="96"
       sodipodi:nodetypes="sssss"
       inkscape:connector-curvature="0"
       id="path902"
       d="m 171.01532,74.266756 c -5.20059,1.198871 -8.55165,13.208677 -6.61458,20.052731 1.41224,4.989743 6.954,7.393713 10.67783,6.068593 3.23204,-1.150122 6.45413,-6.164488 6.3311,-10.817926 -0.18574,-7.025213 -5.42627,-16.44867 -10.39435,-15.303398 z"
       style="fill:#999999;fill-opacity:0.98895024;stroke:none;stroke-width:0.31262606px;stroke-linecap:butt;stroke-linejoin:miter;stroke-opacity:1" />
    <ellipse
       inkscape:export-ydpi="96"
       inkscape:export-xdpi="96"
       ry="7.3780303"
       rx="3.0969267"
       cy="87.45047"
       cx="173.01866"
       id="ellipse904"
       style="fill:#000000;fill-opacity:0.98895024;stroke:#ffffff;stroke-width:1.47732079;stroke-linecap:round;stroke-linejoin:round;stroke-miterlimit:4;stroke-dasharray:none;stroke-opacity:1" />
    <path
       inkscape:export-ydpi="96"
       inkscape:export-xdpi="96"
       inkscape:connector-curvature="0"
       id="path906"
       d="m 154.91354,98.165628 5.29166,3.571872"
       style="fill:none;stroke:#ffffff;stroke-width:1;stroke-linecap:butt;stroke-linejoin:miter;stroke-miterlimit:4;stroke-dasharray:none;stroke-opacity:1" />
    <path
       inkscape:export-ydpi="96"
       inkscape:export-xdpi="96"
       inkscape:connector-curvature="0"
       id="path908"
       d="m 155.04583,102.26667 4.63021,-4.497922"
       style="fill:none;stroke:#ffffff;stroke-width:1;stroke-linecap:butt;stroke-linejoin:miter;stroke-miterlimit:4;stroke-dasharray:none;stroke-opacity:1" />
    <path
       inkscape:export-ydpi="96"
       inkscape:export-xdpi="96"
       sodipodi:nodetypes="sssss"
       inkscape:connector-curvature="0"
       id="path910"
       d="m 128.05833,139.44063 c 2.32012,-4.92978 11.02046,-5.50211 16.00729,-3.3073 5.35755,2.35796 11.31824,9.7082 8.99584,15.08125 -2.27534,5.26415 -11.59607,6.1118 -16.80104,3.70417 -5.29952,-2.45136 -10.68852,-10.19497 -8.20209,-15.47812 z"
       style="fill:#999999;stroke:#ffffff;stroke-width:1;stroke-linecap:butt;stroke-linejoin:miter;stroke-miterlimit:4;stroke-dasharray:none;stroke-opacity:1" />
    <path
       inkscape:export-ydpi="96"
       inkscape:export-xdpi="96"
       sodipodi:nodetypes="cssssssc"
       inkscape:connector-curvature="0"
       id="path912"
       d="m 167.87812,153.06667 c 0,0 6.50041,-14.91899 13.36146,-17.59479 1.62785,-0.63486 3.28317,0.37286 5.02708,0.26458 2.0742,-0.12879 4.09605,-1.79172 6.08542,-1.19063 3.48092,1.05177 6.47329,4.3219 6.08541,7.9375 -0.42166,3.93048 -4.01477,5.21321 -6.87916,7.9375 -1.49395,1.42089 -2.14708,3.9723 -4.10104,4.63021 -8.80455,2.96456 -19.57917,-1.98437 -19.57917,-1.98437 z"
       style="fill:#999999;stroke:#ffffff;stroke-width:1;stroke-linecap:butt;stroke-linejoin:miter;stroke-miterlimit:4;stroke-dasharray:none;stroke-opacity:1" />
    <ellipse
       style="fill:#000000;fill-opacity:0.98895024;stroke:#ffffff;stroke-width:1.02951515;stroke-linecap:round;stroke-linejoin:round;stroke-miterlimit:4;stroke-dasharray:none;stroke-opacity:1"
       id="path914"
       cx="147.67953"
       cy="122.06915"
       rx="8.3246965"
       ry="5.4045963"
       transform="matrix(0.99460584,-0.1037267,0.09179731,0.99577771,0,0)"
       inkscape:export-xdpi="96"
       inkscape:export-ydpi="96" />
    <path
       inkscape:export-ydpi="96"
       inkscape:export-xdpi="96"
       sodipodi:nodetypes="ssssss"
       inkscape:connector-curvature="0"
       id="path896"
       d="m 136.48778,115.49676 c -0.86829,3.03385 -2.85274,7.03141 -0.80525,9.43264 3.30116,3.87149 11.55517,4.64821 15.22225,1.12138 3.0236,-2.90796 2.08843,-9.22615 -0.4347,-12.57759 -2.34074,-3.1092 -7.50525,-5.10033 -11.10204,-3.61394 -1.95026,0.80595 -2.29963,3.60874 -2.88026,5.63751 z"
       style="fill:#999999;stroke:#ffffff;stroke-width:1;stroke-linecap:butt;stroke-linejoin:miter;stroke-miterlimit:4;stroke-dasharray:none;stroke-opacity:1"
       inkscape:transform-center-x="1.1916252"
       inkscape:transform-center-y="4.3663332" />
    <path
       inkscape:export-ydpi="96"
       inkscape:export-xdpi="96"
       sodipodi:nodetypes="ssssss"
       inkscape:connector-curvature="0"
       id="path894"
       d="m 181.6277,127.06635 c -4.32208,1.71652 -9.97709,-1.24434 -13.15846,-4.63634 -2.54853,-2.71723 -4.99704,-7.59232 -3.03165,-10.75706 1.8274,-2.94254 6.99877,-3.19396 10.21484,-1.90755 4.59461,1.83782 8.31933,7.10291 8.68826,12.03767 0.14714,1.96829 -0.87859,4.53474 -2.71299,5.26328 z"
       style="fill:#999999;stroke:#ffffff;stroke-width:1;stroke-linecap:butt;stroke-linejoin:miter;stroke-miterlimit:4;stroke-dasharray:none;stroke-opacity:1" />
  </g>
</svg>
